<?xml version="1.0" encoding="utf-8"?>
<!-- Generator: Adobe Illustrator 17.0.0, SVG Export Plug-In . SVG Version: 6.00 Build 0)  -->
<!DOCTYPE svg PUBLIC "-//W3C//DTD SVG 1.1//EN" "http://www.w3.org/Graphics/SVG/1.1/DTD/svg11.dtd">
<svg version="1.1" id="Capa_1" xmlns="http://www.w3.org/2000/svg" xmlns:xlink="http://www.w3.org/1999/xlink" x="0px" y="0px"
   width="20px" height="20px" viewBox="0 0 76.644 76.644" enable-background="new 0 0 76.644 76.644" xml:space="preserve">
  <g>
    <g>
      <g>
        <circle fill="#010202" cx="38.322" cy="42.361" r="10.602"/>
        <g>
          <circle fill="none" cx="38.322" cy="42.361" r="14.696"/>
          <path fill="#010202" d="M68.889,20.843H56.864c-0.599-0.562-1.222-1.356-1.222-2.239v-3.079c0-1.701-1.378-3.079-3.079-3.079
            H24.081c-1.7,0-3.079,1.378-3.079,3.079v3.079c0,0.884-0.623,1.678-1.222,2.239H7.755c-2.597,0-4.703,1.285-4.703,2.869V61.01
            c0,1.584,2.105,2.869,4.703,2.869h61.133c2.597,0,4.702-1.285,4.702-2.869V23.712C73.591,22.127,71.486,20.843,68.889,20.843z
             M38.322,57.057c-8.116,0-14.696-6.58-14.696-14.696c0-8.116,6.579-14.696,14.696-14.696s14.695,6.579,14.695,14.696
            C53.017,50.477,46.438,57.057,38.322,57.057z M60.155,33.229c-1.275,0-2.309-1.034-2.309-2.309s1.034-2.309,2.309-2.309
            c1.275,0,2.309,1.034,2.309,2.309S61.43,33.229,60.155,33.229z"/>
        </g>
      </g>
    </g>
  </g>
</svg>
