<?xml version="1.0" encoding="utf-8"?>
<!-- Generator: Adobe Illustrator 17.0.0, SVG Export Plug-In . SVG Version: 6.00 Build 0)  -->
<!DOCTYPE svg PUBLIC "-//W3C//DTD SVG 1.1//EN" "http://www.w3.org/Graphics/SVG/1.1/DTD/svg11.dtd">
<svg version="1.1" id="Capa_1" xmlns="http://www.w3.org/2000/svg" xmlns:xlink="http://www.w3.org/1999/xlink" x="0px" y="0px"
   width="24px" height="24px" viewBox="0 0 76.644 76.644" enable-background="new 0 0 76.644 76.644" xml:space="preserve">
<g>
  <path fill="#fff" d="M68.856,5.368L26.254,5.28c-4.08,0-7.399,3.319-7.399,7.399v3.898l32.523-0.067
    c5.462,0,9.903,4.438,9.903,9.895v26.291v0.089v2.604l4.068,4.475c0.241,0.265,0.579,0.408,0.923,0.408
    c0.151,0,0.303-0.027,0.449-0.084c0.482-0.186,0.799-0.649,0.799-1.164V46.546h1.335c4.08,0,7.399-3.319,7.399-7.398V12.767
    C76.253,8.687,72.934,5.368,68.856,5.368z"/>
  <path fill="#fff" d="M50.388,19.704L7.79,19.791c-4.08,0-7.399,3.319-7.399,7.399v26.38c0,4.08,3.319,7.398,7.399,7.398h7.574
    v12.478c0,0.515,0.317,0.978,0.799,1.164c0.146,0.056,0.298,0.084,0.449,0.084c0.344,0,0.683-0.143,0.923-0.408l12.109-13.32
    l20.746-0.085c4.08,0,7.399-3.319,7.399-7.398v-26.38C57.79,23.023,54.47,19.704,50.388,19.704z M13.786,29.162h13.541
    c1.122,0,2.031,0.909,2.031,2.031c0,1.122-0.909,2.031-2.031,2.031H13.786c-1.122,0-2.031-0.909-2.031-2.031
    C11.754,30.072,12.664,29.162,13.786,29.162z M39.514,51.588H13.786c-1.122,0-2.031-0.909-2.031-2.031
    c0-1.122,0.91-2.031,2.031-2.031h25.728c1.122,0,2.031,0.909,2.031,2.031C41.545,50.679,40.635,51.588,39.514,51.588z
     M39.514,42.367H13.786c-1.122,0-2.031-0.909-2.031-2.031s0.91-2.031,2.031-2.031h25.728c1.122,0,2.031,0.909,2.031,2.031
    S40.635,42.367,39.514,42.367z"/>
</g>
</svg>
