<?xml version="1.0" encoding="utf-8"?>
<!-- Generator: Adobe Illustrator 17.0.0, SVG Export Plug-In . SVG Version: 6.00 Build 0)  -->
<!DOCTYPE svg PUBLIC "-//W3C//DTD SVG 1.1//EN" "http://www.w3.org/Graphics/SVG/1.1/DTD/svg11.dtd">
<svg version="1.1" id="Capa_1" xmlns="http://www.w3.org/2000/svg" xmlns:xlink="http://www.w3.org/1999/xlink" x="0px" y="0px"
   width="64px" height="64px" viewBox="0 0 76.644 76.644" enable-background="new 0 0 76.644 76.644" xml:space="preserve">
<path fill="#fff" d="M59.091,14.409l-42.597,0.087c-4.08,0-7.399,3.319-7.399,7.399v26.38c0,4.08,3.319,7.398,7.399,7.398h7.574
  v12.478c0,0.515,0.317,0.978,0.799,1.164c0.146,0.056,0.298,0.084,0.449,0.084c0.344,0,0.683-0.143,0.923-0.408l12.109-13.32
  l20.746-0.085c4.08,0,7.399-3.319,7.399-7.398v-26.38C66.493,17.728,63.174,14.409,59.091,14.409z M22.489,23.868H36.03
  c1.122,0,2.031,0.909,2.031,2.031c0,1.122-0.909,2.031-2.031,2.031H22.489c-1.122,0-2.031-0.909-2.031-2.031
  C20.458,24.777,21.367,23.868,22.489,23.868z M48.217,46.294H22.489c-1.122,0-2.031-0.909-2.031-2.031s0.91-2.031,2.031-2.031
  h25.728c1.122,0,2.031,0.909,2.031,2.031S49.339,46.294,48.217,46.294z M48.217,37.072H22.489c-1.122,0-2.031-0.909-2.031-2.031
  c0-1.122,0.91-2.031,2.031-2.031h25.728c1.122,0,2.031,0.909,2.031,2.031C50.248,36.163,49.339,37.072,48.217,37.072z"/>
</svg>
