<?xml version="1.0" encoding="utf-8"?>
<!-- Generator: Adobe Illustrator 17.0.0, SVG Export Plug-In . SVG Version: 6.00 Build 0)  -->
<!DOCTYPE svg PUBLIC "-//W3C//DTD SVG 1.1//EN" "http://www.w3.org/Graphics/SVG/1.1/DTD/svg11.dtd">
<svg version="1.1" id="Capa_1" xmlns="http://www.w3.org/2000/svg" xmlns:xlink="http://www.w3.org/1999/xlink" x="0px" y="0px"
 width="18px" height="18px" viewBox="0 0 76.644 76.644" enable-background="new 0 0 76.644 76.644" xml:space="preserve">
<g>
<path fill="#CECECE" d="M62.442,14.827c-12.976-12.976-34.014-12.976-46.99,0c-12.976,12.976-12.976,34.014,0,46.99s34.014,12.976,46.99,0
  S75.418,27.803,62.442,14.827z M53.671,49.227c1.055,1.054,1.055,2.764,0,3.818c-0.527,0.527-1.218,0.791-1.909,0.791
  s-1.382-0.264-1.909-0.791L38.947,42.14L28.042,53.045c-0.527,0.527-1.219,0.791-1.909,0.791c-0.691,0-1.382-0.264-1.909-0.791
  c-1.055-1.054-1.055-2.764,0-3.818l10.905-10.905L24.224,27.417c-1.055-1.054-1.055-2.764,0-3.818c1.055-1.055,2.764-1.055,3.818,0
  l10.905,10.905l10.905-10.905c1.057-1.055,2.766-1.054,3.818,0c1.055,1.054,1.055,2.764,0,3.818L42.766,38.322L53.671,49.227z"/>
</g>
</svg>
