<?xml version="1.0" encoding="utf-8"?>
<!-- Generator: Adobe Illustrator 17.0.0, SVG Export Plug-In . SVG Version: 6.00 Build 0)  -->
<!DOCTYPE svg PUBLIC "-//W3C//DTD SVG 1.1//EN" "http://www.w3.org/Graphics/SVG/1.1/DTD/svg11.dtd">
<svg version="1.1" id="Capa_1" xmlns="http://www.w3.org/2000/svg" xmlns:xlink="http://www.w3.org/1999/xlink" x="0px" y="0px"
   width="24px" height="24px" viewBox="0 0 76.644 76.644" enable-background="new 0 0 76.644 76.644" xml:space="preserve">
<g>
  <g>
    <path fill="none" d="M12.967,37.568h20.936c1.182,0,2.14-0.958,2.14-2.14c0-1.182-0.958-2.14-2.14-2.14H12.967
      c-1.182,0-2.14,0.958-2.14,2.14C10.827,36.61,11.785,37.568,12.967,37.568z"/>
    <path fill="none" d="M13.455,19.579h20.936c1.182,0,2.14-0.958,2.14-2.14c0-1.182-0.958-2.14-2.14-2.14H13.455
      c-1.182,0-2.14,0.958-2.14,2.14C11.315,18.621,12.273,19.579,13.455,19.579z"/>
    <path fill="none" d="M13.455,28.663h20.936c1.182,0,2.14-0.958,2.14-2.14c0-1.182-0.958-2.14-2.14-2.14H13.455
      c-1.182,0-2.14,0.958-2.14,2.14C11.315,27.705,12.273,28.663,13.455,28.663z"/>
    <path fill="none" d="M63.399,60.427H12.967c-1.182,0-2.14,0.958-2.14,2.14c0,1.182,0.958,2.14,2.14,2.14h50.432
      c1.182,0,2.14-0.958,2.14-2.14C65.539,61.385,64.581,60.427,63.399,60.427z"/>
    <path fill="none" d="M63.399,42.267H12.967c-1.182,0-2.14,0.958-2.14,2.14c0,1.182,0.958,2.14,2.14,2.14h50.432
      c1.182,0,2.14-0.958,2.14-2.14C65.539,43.225,64.581,42.267,63.399,42.267z"/>
    <path fill="none" d="M63.399,51.349H12.967c-1.182,0-2.14,0.958-2.14,2.14c0,1.182,0.958,2.14,2.14,2.14h50.432
      c1.182,0,2.14-0.958,2.14-2.14C65.539,52.307,64.581,51.349,63.399,51.349z"/>
    <path fill="none" d="M65.795,14.97H41.667c-0.552,0-1,0.447-1,1v20.952c0,0.553,0.448,1,1,1h24.128c0.552,0,1-0.447,1-1V15.97
      C66.795,15.417,66.348,14.97,65.795,14.97z"/>
    <path fill="#fff" d="M67.304,6.868H9.318c-2.347,0-4.142,1.795-4.142,4.142v57.985c0,2.347,1.795,4.142,4.142,4.142h57.985
      c2.347,0,4.142-1.795,4.142-4.142V11.01C71.445,8.663,69.651,6.868,67.304,6.868z M13.455,15.298h20.936
      c1.182,0,2.14,0.958,2.14,2.14c0,1.182-0.958,2.14-2.14,2.14H13.455c-1.182,0-2.14-0.958-2.14-2.14
      C11.315,16.257,12.273,15.298,13.455,15.298z M13.455,24.383h20.936c1.182,0,2.14,0.958,2.14,2.14c0,1.182-0.958,2.14-2.14,2.14
      H13.455c-1.182,0-2.14-0.958-2.14-2.14C11.315,25.341,12.273,24.383,13.455,24.383z M12.967,33.288h20.936
      c1.182,0,2.14,0.958,2.14,2.14c0,1.182-0.958,2.14-2.14,2.14H12.967c-1.182,0-2.14-0.958-2.14-2.14
      C10.827,34.246,11.785,33.288,12.967,33.288z M63.399,64.707H12.967c-1.182,0-2.14-0.958-2.14-2.14c0-1.182,0.958-2.14,2.14-2.14
      h50.432c1.182,0,2.14,0.958,2.14,2.14C65.539,63.749,64.581,64.707,63.399,64.707z M63.399,55.629H12.967
      c-1.182,0-2.14-0.958-2.14-2.14c0-1.182,0.958-2.14,2.14-2.14h50.432c1.182,0,2.14,0.958,2.14,2.14
      C65.539,54.671,64.581,55.629,63.399,55.629z M63.399,46.547H12.967c-1.182,0-2.14-0.958-2.14-2.14c0-1.182,0.958-2.14,2.14-2.14
      h50.432c1.182,0,2.14,0.958,2.14,2.14C65.539,45.589,64.581,46.547,63.399,46.547z M66.795,36.922c0,0.553-0.448,1-1,1H41.667
      c-0.552,0-1-0.447-1-1V15.97c0-0.553,0.448-1,1-1h24.128c0.552,0,1,0.447,1,1V36.922z"/>
  </g>
</g>
</svg>
