<?xml version="1.0" encoding="utf-8"?>
<!-- Generator: Adobe Illustrator 17.0.0, SVG Export Plug-In . SVG Version: 6.00 Build 0)  -->
<!DOCTYPE svg PUBLIC "-//W3C//DTD SVG 1.1//EN" "http://www.w3.org/Graphics/SVG/1.1/DTD/svg11.dtd">
<svg version="1.1" id="Capa_1" xmlns="http://www.w3.org/2000/svg" xmlns:xlink="http://www.w3.org/1999/xlink" x="0px" y="0px"
   width="64px" height="64px" viewBox="0 0 97.764 76.644" enable-background="new 0 0 97.764 76.644" xml:space="preserve">
<g>
  <path fill="#fff" d="M67.64,20.76c1.335,10.807-2.012,20.421-9.76,24.437c0,0,0.281,1.61,0.731,2.804c0.487,1.291,16.14,5.762,20.237,14.629
    c2.626,5.683,3.102,9.716,3.096,11.921H93.35c0-22.412-19.355-22.782-24.229-28.454l-0.579-3.09
    c6.159-3.212,10.487-10.792,10.487-19.636c0-11.751-7.644-21.279-17.071-21.279c-2.427,0-4.731,0.64-6.821,1.778
    C57.493,4.131,66.275,9.71,67.64,20.76z"/>
</g>
<g>
  <path fill="#fff" d="M30.124,20.76c-1.335,10.807,2.012,20.421,9.76,24.437c0,0-0.281,1.61-0.731,2.804c-0.487,1.291-16.14,5.762-20.237,14.629
    c-2.626,5.683-3.102,9.716-3.096,11.921H4.415c0-22.412,19.355-22.782,24.229-28.454l0.579-3.09
    c-6.159-3.212-10.487-10.792-10.487-19.636c0-11.751,7.644-21.279,17.071-21.279c2.427,0,4.731,0.64,6.821,1.778
    C40.271,4.131,31.49,9.71,30.124,20.76z"/>
</g>
<path fill="#fff" d="M56.282,48.056l-0.579-3.09C61.862,41.754,66.19,34.174,66.19,25.33c0-11.751-7.644-21.279-17.071-21.279
  c-9.427,0-17.071,9.528-17.071,21.279c0,8.921,4.406,16.546,10.648,19.711l-0.508,2.718c-4.443,5.961-24.464,5.954-24.464,28.751
  h31.171h0.446v0.001h31.171C80.511,54.098,61.156,53.728,56.282,48.056z"/>
</svg>
