<?xml version="1.0" encoding="utf-8"?>
<!-- Generator: Adobe Illustrator 17.0.0, SVG Export Plug-In . SVG Version: 6.00 Build 0)  -->
<!DOCTYPE svg PUBLIC "-//W3C//DTD SVG 1.1//EN" "http://www.w3.org/Graphics/SVG/1.1/DTD/svg11.dtd">
<svg version="1.1" id="Capa_1" xmlns="http://www.w3.org/2000/svg" xmlns:xlink="http://www.w3.org/1999/xlink" x="0px" y="0px"
 width="64px" height="64px" viewBox="0 0 76.644 76.644" enable-background="new 0 0 76.644 76.644" xml:space="preserve">
<path fill="#fff" d="M49.631,7.246c-6.514,0-12.465,3.604-15.675,9.341c-3.191-5.812-8.889-9.342-15.293-9.342
c-9.518,0-17.123,7.812-18.096,18.581c-0.069,0.419-0.405,2.911,0.572,7.054c1.396,5.915,4.62,11.293,9.322,15.553L33.28,69.14
c0.19,0.173,0.431,0.259,0.672,0.259c0.238,0,0.476-0.084,0.666-0.254l14.59-13.018c-0.256-0.217-0.501-0.445-0.744-0.676
c-0.242-0.23-0.477-0.467-0.707-0.71c-3.111-3.292-5.032-7.722-5.032-12.609c0-10.149,8.228-18.377,18.377-18.377
c1.525,0,2.998,0.206,4.414,0.556c0.349,0.086,0.702,0.162,1.043,0.268c0.36,0.112,0.706,0.253,1.056,0.386
C66.32,14.649,58.89,7.246,49.631,7.246z"/>
<g>
<path fill="#fff" d="M61.101,26.654c-8.332,0-15.087,6.755-15.087,15.087s6.755,15.087,15.087,15.087s15.087-6.755,15.087-15.087
  S69.433,26.654,61.101,26.654z M68.56,43.241h-5.959v5.958c0,0.829-0.672,1.5-1.5,1.5s-1.5-0.671-1.5-1.5v-5.958h-5.958
  c-0.828,0-1.5-0.671-1.5-1.5s0.672-1.5,1.5-1.5h5.958v-5.958c0-0.829,0.672-1.5,1.5-1.5s1.5,0.671,1.5,1.5v5.958h5.959
  c0.828,0,1.5,0.671,1.5,1.5S69.388,43.241,68.56,43.241z"/>
</g>
</svg>
