<?xml version="1.0" encoding="utf-8"?>
<!-- Generator: Adobe Illustrator 17.0.0, SVG Export Plug-In . SVG Version: 6.00 Build 0)  -->
<!DOCTYPE svg PUBLIC "-//W3C//DTD SVG 1.1//EN" "http://www.w3.org/Graphics/SVG/1.1/DTD/svg11.dtd">
<svg version="1.1" id="Capa_1" xmlns="http://www.w3.org/2000/svg" xmlns:xlink="http://www.w3.org/1999/xlink" x="0px" y="0px"
   width="22px" height="22px" viewBox="0 0 76.644 76.644" enable-background="new 0 0 76.644 76.644" xml:space="preserve">
<path fill="#DADADA" d="M72.074,27.363C71.038,16.086,63.021,7.911,52.986,7.911c-6.319,0-12.136,3.209-15.664,8.421
  C33.843,11.058,28.25,7.91,22.018,7.91c-10.036,0-18.053,8.175-19.089,19.452c-0.1,0.622-0.4,3.204,0.593,7.412
  c1.443,6.113,4.771,11.668,9.623,16.064l22.817,20.708c0.381,0.346,0.862,0.519,1.344,0.519c0.476,0,0.952-0.169,1.331-0.508
  l23.22-20.717c4.854-4.399,8.182-9.954,9.624-16.064C72.475,30.568,72.175,27.985,72.074,27.363z M67.589,33.856
  c-1.256,5.319-4.167,10.167-8.405,14.01L37.318,67.374L15.832,47.875c-4.25-3.851-7.16-8.7-8.417-14.021
  c-0.884-3.745-0.537-5.854-0.537-5.855c0.013-0.067,0.022-0.134,0.028-0.202C7.723,18.591,14.08,11.91,22.018,11.91
  c5.847,0,10.998,3.604,13.445,9.404c0.312,0.741,1.039,1.223,1.843,1.223s1.53-0.481,1.843-1.223
  c2.409-5.712,7.841-9.403,13.837-9.403c7.938,0,14.294,6.682,15.111,15.887c0.005,0.055,0.016,0.129,0.025,0.184
  C68.126,28.003,68.472,30.112,67.589,33.856z"/>
</svg>
