<?xml version="1.0" encoding="utf-8"?>
<!-- Generator: Adobe Illustrator 17.0.0, SVG Export Plug-In . SVG Version: 6.00 Build 0)  -->
<!DOCTYPE svg PUBLIC "-//W3C//DTD SVG 1.1//EN" "http://www.w3.org/Graphics/SVG/1.1/DTD/svg11.dtd">
<svg version="1.1" id="Capa_1" xmlns="http://www.w3.org/2000/svg" xmlns:xlink="http://www.w3.org/1999/xlink" x="0px" y="0px"
   width="64px" height="64px" viewBox="0 0 76.644 76.644" enable-background="new 0 0 76.644 76.644" xml:space="preserve">
<path fill="#fff" d="M71.674,25.826c-0.975-10.769-8.579-18.58-18.096-18.58c-6.514,0-12.465,3.605-15.675,9.341
  c-3.19-5.812-8.888-9.342-15.293-9.342c-9.518,0-17.122,7.812-18.097,18.581c-0.069,0.418-0.404,2.909,0.573,7.054
  c1.396,5.915,4.62,11.293,9.322,15.554L37.226,69.14c0.19,0.173,0.431,0.259,0.672,0.259c0.238,0,0.476-0.084,0.666-0.254
  l23.214-20.712c4.702-4.262,7.926-9.64,9.322-15.553C72.079,28.736,71.743,26.245,71.674,25.826z"/>
</svg>
