<?xml version="1.0" encoding="utf-8"?>
<!-- Generator: Adobe Illustrator 17.0.0, SVG Export Plug-In . SVG Version: 6.00 Build 0)  -->
<!DOCTYPE svg PUBLIC "-//W3C//DTD SVG 1.1//EN" "http://www.w3.org/Graphics/SVG/1.1/DTD/svg11.dtd">
<svg version="1.1" id="Capa_1" xmlns="http://www.w3.org/2000/svg" xmlns:xlink="http://www.w3.org/1999/xlink" x="0px" y="0px"
   width="24px" height="24px" viewBox="0 0 76.644 76.644" enable-background="new 0 0 76.644 76.644" xml:space="preserve">
<path fill="#fff" stroke="#fff" stroke-width="2" stroke-miterlimit="10" d="M38.322,3.27C18.994,3.27,3.27,18.995,3.27,38.322
  c0,19.327,15.724,35.051,35.052,35.051c19.327,0,35.051-15.724,35.051-35.051C73.374,18.995,57.649,3.27,38.322,3.27z M4.989,38.322
  c0-6.111,1.661-11.838,4.543-16.768l3.839-2.792c0.77-0.154,1.694,0.616,2.002,1.54c0.308,0.77,0.308,1.848,0.77,2.618
  c0.308,0.462,0.616,0.924,0.924,1.386c0.924,1.54,0.77,3.542-0.616,4.929c-0.462,0.616-0.924,0.924-1.54,1.386
  c-1.54,1.232-2.926,2.772-4.158,4.312c-0.924,1.078-1.694,2.156-2.002,3.388c-0.462,1.694,0.308,3.696,1.694,4.621
  c0.308,0.308,0.616,0.308,0.77,0.616c0.308,0.308,0.308,0.616,0.462,0.924c0.308,1.232,0.616,2.464,0.924,3.696
  c0.308,0.616,0.462,1.386,0.924,2.002c0.924,0.924,2.31,1.232,3.234,2.002c0.77,0.616,1.386,1.694,2.31,1.848
  c0.616,0.154,1.232-0.154,1.848-0.154s1.232,0.308,1.386,0.924c0.154,0.462-0.154,1.078,0.308,1.232
  c2.002-0.77,3.85,1.232,2.926,3.08c-0.154,0.308-0.154,0.462-0.308,0.77c-0.308,1.078-1.54,2.002-1.54,3.08
  c0,1.078,1.078,2.156,0.462,3.08c0,0.154-0.154,0.308-0.462,0.462c-0.466,0.373-1.015,0.682-1.549,0.942
  C11.921,61.749,4.989,50.832,4.989,38.322z M29.854,6.083c0.013,0.665-0.487,1.387-1.081,1.744c-0.77,0.462-1.848,0.616-2.772,0.77
  c-0.616,0.154-1.232,0.154-2.002,0.308c-0.308,0-0.462,0.154-0.616,0.154c-0.462,0.154-0.616,0.616-0.924,1.078
  c-0.308,0.616-0.77,1.386-1.078,2.002c-0.462,0.924-1.078,1.848-2.002,2.156c-1.078,0.462-2.31,0-2.926-0.924
  c-0.021-0.042-0.04-0.08-0.06-0.119C20.212,9.905,24.798,7.412,29.854,6.083z M71.63,37.339c-0.014,0.02-0.026,0.038-0.04,0.059
  c-1.078,1.54,0.924,6.931-3.08,5.853c-1.694-0.462,0.308-3.696-0.154-5.391s-1.078-3.234-2.31-4.466
  c-1.232-1.232-3.08-1.694-4.621-0.924c0.308,1.078,2.002,1.232,2.772,2.156c0.462,0.77,0.308,1.848-0.308,2.464
  c-0.616,0.616-1.386,1.232-2.002,1.848c-0.308,0.308-0.616,0.616-0.616,1.078s0.462,0.924,0.616,1.386
  c0.308,0.616,0,1.386-0.616,2.002c-0.462,0.462-1.078,0.924-1.694,1.232c-1.848,1.232-3.08,3.388-3.388,5.545
  c-0.154,0.924-0.154,1.694-0.308,2.618c-0.308,0.924-1.078,1.848-1.694,2.618c-0.77,1.386-1.078,2.926-1.694,4.313
  c-0.77,1.848-1.848,3.388-3.234,4.621c-0.616,0.616-1.386,1.232-2.31,1.386c-1.848,0.308-3.696-1.232-4.466-2.926
  c-0.77-1.54-0.924-3.388-0.616-5.083c0.308-1.54,1.232-3.388,0.154-4.621c-0.462-0.462-0.924-0.77-1.386-1.232
  c-1.694-1.694-1.078-4.466-1.386-6.777c0-0.308-0.154-0.77-0.462-1.078c-0.154-0.154-0.308-0.154-0.616-0.154
  c-1.848-0.308-3.85-0.154-5.699-0.308c-1.848-0.308-3.85-1.078-4.775-2.772c-0.77-1.386-0.77-3.08-0.77-4.62
  c0-1.232,0.154-2.464,0.77-3.542c0.77-1.386,2.31-2.002,3.696-2.618c2.464-1.078,5.083-2.31,7.855-1.694
  c1.54,0.308,2.926,1.078,4.466,1.232c0.924,0.154,1.848,0,2.618-0.154c2.618-0.462,5.083-1.078,7.547-2.156
  c1.386-0.616,3.08-1.694,2.772-3.234c-0.154-0.924-1.078-1.54-2.002-1.694c-0.924-0.154-1.848,0-2.772,0.462
  c-1.232,0.462-2.464,1.232-3.388,2.156c-0.308,0.308-0.77,0.77-1.232,0.77c-1.694,0.308-2.002-2.926-3.696-2.772
  c0.462,0.616,0.308,1.54-0.154,2.002c-0.616,0.462-1.54,0.462-2.156,0c-0.77-0.462-1.078-1.54-2.002-1.848
  c-0.924-0.308-1.848,0.308-2.618,0.77c-1.54,0.924-3.234,1.54-4.929,1.694c-1.078,0.154-2.31,0-2.772-0.924
  c-0.616-1.078,0.308-2.464,1.386-2.926c1.078-0.462,2.31-0.462,3.542-0.77c0.308-0.77,0.308-1.54,0.308-2.31
  c-1.386-0.77-3.234,0-4.466-0.924c-0.77-0.616-1.078-1.694-0.77-2.618c0.308-0.924,0.924-1.694,1.848-2.156
  c1.078-0.616,2.926-0.462,3.234,0.77c0.154,0.616-0.154,1.078-0.154,1.694c-0.154,0.616,0.154,1.232,0.616,1.386
  c0.154,0,0.462,0,0.77,0c3.234-0.77,6.623-1.386,9.857-2.156c0.616-0.154,1.232-0.308,1.694-0.616
  c0.462-0.462,0.616-1.232,0.308-1.694c-0.616-0.924-2.002,0-2.926,0.308c-1.54,0.462-2.926,0.154-4.159-0.154
  c-0.616-0.154-1.54-0.462-1.54-1.232c0-0.462,0.308-0.77,0.616-1.078c2.464-2.31,6.161-3.08,9.395-2.156
  c1.694,0.462,3.234,1.386,4.929,1.694c0.653,0.093,1.216,0.047,1.798-0.071C64.778,15.251,71.285,25.533,71.63,37.339z"/>
</svg>
