<?xml version="1.0" encoding="utf-8"?>
<!-- Generator: Adobe Illustrator 17.0.0, SVG Export Plug-In . SVG Version: 6.00 Build 0)  -->
<!DOCTYPE svg PUBLIC "-//W3C//DTD SVG 1.1//EN" "http://www.w3.org/Graphics/SVG/1.1/DTD/svg11.dtd">
<svg version="1.1" id="Capa_1" xmlns="http://www.w3.org/2000/svg" xmlns:xlink="http://www.w3.org/1999/xlink" x="0px" y="0px"
 width="24px" height="24px" viewBox="0 0 76.644 76.644" enable-background="new 0 0 76.644 76.644" xml:space="preserve">
<g>
<path fill="#fff" d="M11.278,53.131c-0.259-0.259-0.639-0.354-0.986-0.253c-0.351,0.102-0.617,0.387-0.697,0.743L6.217,68.793
  c-0.166,0.751,0.014,1.525,0.494,2.125c0.482,0.601,1.196,0.946,1.959,0.946c0.2,0,0.402-0.024,0.6-0.073l14.898-3.612
  c0.352-0.085,0.63-0.353,0.728-0.701s0-0.722-0.256-0.978L11.278,53.131z"/>
<path fill="#fff" d="M48.733,15.668c-0.375-0.375-1.039-0.375-1.414,0L13.484,49.511c-0.391,0.391-0.391,1.023,0,1.414
  l13.362,13.37c0.188,0.188,0.441,0.293,0.707,0.293s0.52-0.105,0.707-0.293l33.843-33.843c0.391-0.391,0.391-1.023,0-1.414
  L48.733,15.668z"/>
<path fill="#fff" d="M72.248,12.444l-5.962-5.962c-1.304-1.304-3.038-2.021-4.883-2.021c-1.846,0-3.581,0.717-4.89,2.021
  l-5.711,5.711c-0.391,0.391-0.391,1.023,0,1.414l13.369,13.37c0.188,0.188,0.441,0.293,0.707,0.293s0.52-0.105,0.707-0.293
  l6.662-6.662C74.418,18.144,74.418,14.614,72.248,12.444z"/>
</g>
</svg>
