<?xml version="1.0" encoding="utf-8"?>
<!-- Generator: Adobe Illustrator 17.0.0, SVG Export Plug-In . SVG Version: 6.00 Build 0)  -->
<!DOCTYPE svg PUBLIC "-//W3C//DTD SVG 1.1//EN" "http://www.w3.org/Graphics/SVG/1.1/DTD/svg11.dtd">
<svg version="1.1" id="Capa_1" xmlns="http://www.w3.org/2000/svg" xmlns:xlink="http://www.w3.org/1999/xlink" x="0px" y="0px"
   width="64px" height="64px" viewBox="0 -16.319 105.969 92.963" enable-background="new 0 -16.319 105.969 92.963"
   xml:space="preserve">
<g>
  <path fill="#fff" d="M100.636,15.635c-0.175-0.496-0.534-0.894-1.008-1.117L45.745-11.224c-0.269-0.13-0.556-0.196-0.853-0.196
    c-0.751,0-1.443,0.435-1.761,1.107L31.403,14.233c-0.104,0.217-0.089,0.471,0.039,0.675s0.351,0.326,0.592,0.326h6.39
    c0.27,0,0.515-0.155,0.631-0.398l8.306-17.404l45.456,21.713L78.811,48.46l-7.594-3.625c-0.217-0.103-0.471-0.089-0.674,0.04
    c-0.203,0.128-0.326,0.351-0.326,0.592v16.165c0,0.269,0.155,0.515,0.398,0.631l5.055,2.413c0.267,0.129,0.552,0.195,0.847,0.195
    c0,0,0,0,0,0c0.748,0,1.441-0.439,1.767-1.118l22.268-46.626C100.779,16.657,100.81,16.128,100.636,15.635z"/>
  <path fill="#fff" d="M65.912,16.8H6.19c-1.082,0-1.962,0.876-1.962,1.952v51.682c0,1.08,0.88,1.959,1.962,1.959h59.72
    c1.082,0,1.962-0.879,1.962-1.959V18.754c0.002-0.518-0.2-1.007-0.568-1.376C66.932,17.005,66.438,16.8,65.912,16.8z
     M61.763,23.914v32.494H11.39V23.914H61.763z"/>
</g>
</svg>
