<?xml version="1.0" encoding="utf-8"?>
<!-- Generator: Adobe Illustrator 17.0.0, SVG Export Plug-In . SVG Version: 6.00 Build 0)  -->
<!DOCTYPE svg PUBLIC "-//W3C//DTD SVG 1.1//EN" "http://www.w3.org/Graphics/SVG/1.1/DTD/svg11.dtd">
<svg version="1.1" id="Capa_1" xmlns="http://www.w3.org/2000/svg" xmlns:xlink="http://www.w3.org/1999/xlink" x="0px" y="0px"
   width="64px" height="64px" viewBox="0 0 76.644 76.644" enable-background="new 0 0 76.644 76.644" xml:space="preserve">
<g>
  <path fill="#fff" d="M69.701,63.569l-9.69-0.003c-0.188,0-0.359,0.102-0.449,0.266c-0.09,0.164-0.084,0.364,0.017,0.521
    l4.276,6.724c0.238,0.375,0.646,0.599,1.092,0.599c0.454,0,0.866-0.231,1.102-0.618l4.091-6.709
    c0.097-0.159,0.101-0.356,0.01-0.518S69.886,63.569,69.701,63.569z"/>
  <path fill="#fff" d="M69.701,36.41h-9.692c-0.136,0-0.267,0.054-0.362,0.15c-0.097,0.096-0.15,0.227-0.15,0.362l0.002,24.532
    c0,0.283,0.229,0.513,0.513,0.513l9.69,0.002c0.136,0,0.267-0.054,0.362-0.15c0.097-0.096,0.15-0.227,0.15-0.362V36.922
    C70.213,36.639,69.984,36.41,69.701,36.41z"/>
  <path fill="#fff" d="M67.363,26.717h-4.322c-1.95,0-3.539,1.589-3.543,3.542v4.14c0,0.283,0.229,0.513,0.513,0.513h9.693
    c0.283,0,0.513-0.229,0.513-0.513v-4.83C70.216,27.997,68.936,26.717,67.363,26.717z"/>
</g>
<g>
  <polygon fill="none" points="19.269,63.291 19.269,57.757 13.734,57.757  "/>
  <path fill="#fff" d="M52.797,4.968H8.568c-1.182,0-2.14,0.958-2.14,2.14v48.509c0,0.556,0.225,1.112,0.627,1.514L19.894,69.97
    c0.396,0.397,0.944,0.628,1.514,0.628h31.388c1.182,0,2.14-0.958,2.14-2.14V7.108C54.937,5.926,53.979,4.968,52.797,4.968z
     M19.269,63.291l-5.534-5.534h5.534V63.291z M44.236,53.477H29.969c-1.182,0-2.14-0.958-2.14-2.14s0.958-2.14,2.14-2.14h14.268
    c1.182,0,2.14,0.958,2.14,2.14C46.377,52.519,45.418,53.477,44.236,53.477z M44.236,44.917H17.128c-1.182,0-2.14-0.958-2.14-2.14
    c0-1.182,0.958-2.14,2.14-2.14h27.108c1.182,0,2.14,0.958,2.14,2.14C46.377,43.958,45.418,44.917,44.236,44.917z M44.236,36.356
    H17.128c-1.182,0-2.14-0.958-2.14-2.14c0-1.182,0.958-2.14,2.14-2.14h27.108c1.182,0,2.14,0.958,2.14,2.14
    C46.377,35.398,45.418,36.356,44.236,36.356z M44.236,27.796H17.128c-1.182,0-2.14-0.958-2.14-2.14c0-1.182,0.958-2.14,2.14-2.14
    h27.108c1.182,0,2.14,0.958,2.14,2.14C46.377,26.838,45.418,27.796,44.236,27.796z"/>
</g>
<g>
  <g>
    <path fill="#fff" d="M44.237,57.757H29.969c-1.182,0-2.14,0.958-2.14,2.14c0,1.182,0.958,2.14,2.14,2.14h14.267
      c1.182,0,2.14-0.958,2.14-2.14C46.377,58.715,45.418,57.757,44.237,57.757z"/>
  </g>
</g>
</svg>
