<?xml version="1.0" encoding="utf-8"?>
<!-- Generator: Adobe Illustrator 17.0.0, SVG Export Plug-In . SVG Version: 6.00 Build 0)  -->
<!DOCTYPE svg PUBLIC "-//W3C//DTD SVG 1.1//EN" "http://www.w3.org/Graphics/SVG/1.1/DTD/svg11.dtd">
<svg version="1.1" id="Capa_1" xmlns="http://www.w3.org/2000/svg" xmlns:xlink="http://www.w3.org/1999/xlink" x="0px" y="0px"
   width="24px" height="24px" viewBox="0 0 76.644 76.644" enable-background="new 0 0 76.644 76.644" xml:space="preserve">
<path fill="#fff" d="M66.023,61.327L52.702,47.472c3.396-4.181,5.26-9.423,5.26-14.811c0-12.974-10.555-23.528-23.528-23.528
  S10.905,19.688,10.905,32.662S21.46,56.19,34.434,56.19c4.726,0,9.267-1.394,13.16-4.036l13.438,13.976
  c0.659,0.685,1.545,1.062,2.496,1.062c0.9,0,1.753-0.343,2.399-0.966C67.304,64.901,67.348,62.704,66.023,61.327z M51.034,32.662
  c0,9.153-7.447,16.601-16.601,16.601s-16.601-7.447-16.601-16.601c0-9.154,7.447-16.601,16.601-16.601S51.034,23.508,51.034,32.662z
  "/>
</svg>
