<?xml version="1.0" encoding="utf-8"?>
<!-- Generator: Adobe Illustrator 17.0.0, SVG Export Plug-In . SVG Version: 6.00 Build 0)  -->
<!DOCTYPE svg PUBLIC "-//W3C//DTD SVG 1.1//EN" "http://www.w3.org/Graphics/SVG/1.1/DTD/svg11.dtd">
<svg version="1.1" id="Capa_1" xmlns="http://www.w3.org/2000/svg" xmlns:xlink="http://www.w3.org/1999/xlink" x="0px" y="0px"
   width="32px" height="32px" viewBox="0 0 76.644 76.644" enable-background="new 0 0 76.644 76.644" xml:space="preserve">
<path fill="#fff" d="M68.747,30.568h-6.394c-1.028,0-1.874-0.566-2.268-1.515c-0.394-0.949-0.194-1.949,0.532-2.676l4.521-4.52
  c0.664-0.664,1.03-1.549,1.03-2.488c0-0.94-0.366-1.824-1.03-2.49l-5.762-5.762c-1.329-1.329-3.646-1.331-4.978,0l-4.52,4.52
  c-0.601,0.601-1.262,0.726-1.711,0.726c-0.633,0-1.262-0.248-1.726-0.682c-0.343-0.321-0.753-0.891-0.753-1.779V7.509
  c0-1.94-1.578-3.518-3.518-3.518h-8.151c-1.94,0-3.518,1.578-3.518,3.518v6.394c0,1.542-1.262,2.462-2.482,2.462
  c-0.448,0-1.109-0.127-1.71-0.726l-4.52-4.52c-1.331-1.331-3.649-1.329-4.978,0l-5.762,5.762c-0.664,0.664-1.03,1.549-1.03,2.49
  c0,0.939,0.366,1.823,1.03,2.488l4.521,4.52c0.725,0.727,0.924,1.726,0.532,2.676c-0.392,0.949-1.239,1.515-2.267,1.515H7.44
  c-1.94,0-3.518,1.578-3.518,3.518v8.148c0,1.942,1.578,3.521,3.518,3.521h6.394c1.028,0,1.874,0.566,2.268,1.515
  c0.394,0.949,0.194,1.949-0.532,2.676l-4.521,4.52c-0.664,0.664-1.03,1.549-1.03,2.488c0,0.94,0.366,1.824,1.03,2.49l5.762,5.762
  c1.33,1.33,3.646,1.333,4.978,0l4.52-4.52c0.601-0.601,1.262-0.726,1.711-0.726c1.219,0,2.481,0.921,2.481,2.462v6.393
  c-0.001,1.94,1.577,3.52,3.517,3.52h8.149c1.94,0,3.518-1.58,3.518-3.52v-6.393c0-1.542,1.262-2.462,2.481-2.462
  c0.448,0,1.11,0.127,1.711,0.727l4.52,4.52c1.331,1.331,3.649,1.329,4.978,0l5.762-5.762c0.664-0.664,1.03-1.549,1.03-2.49
  c0-0.939-0.366-1.823-1.03-2.488l-4.521-4.52c-0.725-0.726-0.924-1.726-0.532-2.676c0.392-0.949,1.24-1.515,2.268-1.515h6.394
  c1.94,0,3.518-1.579,3.518-3.52v-8.149C72.266,32.147,70.687,30.568,68.747,30.568z M38.094,47.022
  c-4.884,0-8.859-3.975-8.859-8.859s3.975-8.859,8.859-8.859s8.859,3.975,8.859,8.859S42.978,47.022,38.094,47.022z"/>
</svg>
